<svg id="Camada_1" data-name="Camada 1" xmlns="http://www.w3.org/2000/svg" xmlns:xlink="http://www.w3.org/1999/xlink" viewBox="0 0 1000 1000"><defs><style>.cls-1{opacity:0.38;fill:url(#Gradiente_sem_nome_21);}</style><radialGradient id="Gradiente_sem_nome_21" cx="488.87" cy="524.58" r="428.9" gradientUnits="userSpaceOnUse"><stop offset="0" stop-color="#36a9e1"/><stop offset="1" stop-color="#1d619d"/></radialGradient></defs><path class="cls-1" d="M859.12,684.64V363.71a45.49,45.49,0,1,0-42.77-78.78L533.21,121.47a42.68,42.68,0,0,0,.46-6.33,45.49,45.49,0,1,0-89.75,10.47L164,287.19a45.49,45.49,0,1,0-45.39,76.52V684.64A45.49,45.49,0,1,0,163.09,762L443.78,924.08a45,45,0,0,0-1.09,9.93,45.49,45.49,0,1,0,91,0,44,44,0,0,0-.37-5.78l284.07-164a45.5,45.5,0,1,0,41.75-79.58ZM844.57,304.82a15.78,15.78,0,1,1-15.79,15.79A15.8,15.8,0,0,1,844.57,304.82ZM488.18,99.35a15.78,15.78,0,1,1-15.78,15.79A15.8,15.8,0,0,1,488.18,99.35ZM178,312.74,438.86,162.12,366.94,262.84a44.56,44.56,0,0,0-12.57-1.78,45.47,45.47,0,1,0,36.5,18.33l85.84-120.23a45.07,45.07,0,0,0,11.47,1.47,44.59,44.59,0,0,0,12.64-1.79l86.06,120.57a45.5,45.5,0,1,0,36.51-18.35,44.58,44.58,0,0,0-12.58,1.78L534.32,155.71,800.47,309.36a45.33,45.33,0,0,0-1.4,11.25,44.72,44.72,0,0,0,1,9.68L519.84,492.11a45.48,45.48,0,0,0-63-.25L177.55,330.63a44,44,0,0,0,1.12-10A43.39,43.39,0,0,0,178,312.74Zm192.19-6.19a15.79,15.79,0,1,1-15.79-15.78A15.79,15.79,0,0,1,370.16,306.55Zm237.45,0a15.79,15.79,0,1,1,15.78,15.77A15.77,15.77,0,0,1,607.61,306.55ZM504,524.78A15.79,15.79,0,1,1,488.18,509,15.79,15.79,0,0,1,504,524.78ZM117.4,320.61a15.79,15.79,0,1,1,15.78,15.77A15.78,15.78,0,0,1,117.4,320.61Zm15.78,422.9A15.78,15.78,0,1,1,149,727.74,15.78,15.78,0,0,1,133.18,743.51Zm70.09,8.1,118.55,7.56a45.5,45.5,0,1,0,2.86-29l-146.54-9.32a45.2,45.2,0,0,0-13.83-26.32l63.59-131a42.63,42.63,0,0,0,5.67.37,45.49,45.49,0,1,0-31.88-13l-53.95,111.2V363.71a44.78,44.78,0,0,0,14.67-8.25L443.25,517.63a45.53,45.53,0,0,0,30.38,50.25v323a45.08,45.08,0,0,0-14.73,8.3Zm147.08-2.7a15.79,15.79,0,1,1,15.79,15.77A15.78,15.78,0,0,1,350.35,748.91ZM217.79,518.4a15.79,15.79,0,1,1,15.78,15.77A15.77,15.77,0,0,1,217.79,518.4ZM488.18,949.78A15.78,15.78,0,1,1,504,934,15.77,15.77,0,0,1,488.18,949.78ZM745.75,472.91a45.49,45.49,0,1,0,0,91,40.32,40.32,0,0,0,4.41-.22l63.43,130.75a45.33,45.33,0,0,0-14,26.46l-145.74,9.27a45.48,45.48,0,1,0,2.89,29l125.08-8L520.52,902a45.44,45.44,0,0,0-17.78-11.1v-323a45.47,45.47,0,0,0,30.93-43.1,44.3,44.3,0,0,0-.51-6.77L815.08,355.24A45,45,0,0,0,830,363.71V661.62L776.7,551.73a45.48,45.48,0,0,0-31-78.82Zm15.78,45.49a15.79,15.79,0,1,1-15.78-15.78A15.78,15.78,0,0,1,761.53,518.4ZM628.2,748.91a15.79,15.79,0,1,1-15.79-15.79A15.79,15.79,0,0,1,628.2,748.91Zm216.37-5.4a15.78,15.78,0,1,1,15.78-15.77A15.78,15.78,0,0,1,844.57,743.51Z"/></svg>