<svg id="Camada_1" data-name="Camada 1" xmlns="http://www.w3.org/2000/svg" xmlns:xlink="http://www.w3.org/1999/xlink" viewBox="0 0 1573.04 415.31"><defs><style>.cls-1{fill:url(#Gradiente_sem_nome_29);}.cls-2{fill:#ededed;}</style><radialGradient id="Gradiente_sem_nome_29" cx="180.6" cy="209.11" r="164.47" gradientUnits="userSpaceOnUse"><stop offset="0" stop-color="#fff"/><stop offset="1" stop-color="#ededed"/></radialGradient></defs><path class="cls-1" d="M322.58,270.49V147.42a17.44,17.44,0,1,0-16.41-30.2L197.6,54.53a16.13,16.13,0,0,0,.18-2.42,17.45,17.45,0,1,0-34.89,0,17.13,17.13,0,0,0,.47,4L56,118.08a17.44,17.44,0,1,0-17.41,29.34V270.49a17.44,17.44,0,1,0,17,29.67L163.31,362.3a17.11,17.11,0,0,0-.42,3.81,17.45,17.45,0,1,0,34.89,0,16.08,16.08,0,0,0-.15-2.21L306.57,301a17.44,17.44,0,1,0,16-30.51ZM317,124.84a6.05,6.05,0,1,1-6.05,6.06A6.06,6.06,0,0,1,317,124.84ZM180.33,46.05a6.05,6.05,0,1,1-6.05,6.06A6.06,6.06,0,0,1,180.33,46.05Zm-119,81.83,100-57.76-27.58,38.62a17.44,17.44,0,1,0,9.18,6.35L175.93,69a17.74,17.74,0,0,0,4.4.56,16.82,16.82,0,0,0,4.85-.69l33,46.24a17.45,17.45,0,1,0,9.18-6.36L198,67.66l102.06,58.92a17.1,17.1,0,0,0-.54,4.32,17.43,17.43,0,0,0,.4,3.71l-107.48,62a17.43,17.43,0,0,0-24.17-.1L61.22,134.74a17.21,17.21,0,0,0,.16-6.86Zm73.7-2.37a6.06,6.06,0,1,1-6.06-6.06A6.06,6.06,0,0,1,135.08,125.51Zm91,0a6.06,6.06,0,1,1,6.05,6A6.05,6.05,0,0,1,226.13,125.51Zm-39.74,83.68a6.06,6.06,0,1,1-6.06-6.05A6.06,6.06,0,0,1,186.39,209.19ZM38.15,130.9a6.06,6.06,0,1,1,6.06,6A6.06,6.06,0,0,1,38.15,130.9Zm6.06,162.16a6.05,6.05,0,1,1,6-6A6.05,6.05,0,0,1,44.21,293.06Zm26.87,3.11,45.46,2.9a17.45,17.45,0,1,0,1.1-11.11l-56.19-3.57a17.36,17.36,0,0,0-5.31-10.1L80.52,224a15.86,15.86,0,0,0,2.18.15,17.46,17.46,0,1,0-12.22-5L49.79,261.83V147.42a16.93,16.93,0,0,0,5.62-3.16l107.7,62.19a16.52,16.52,0,0,0-.22,2.74,17.45,17.45,0,0,0,11.86,16.53V349.59a17.25,17.25,0,0,0-5.64,3.18Zm56.4-1a6.06,6.06,0,1,1,6,6.05A6.05,6.05,0,0,1,127.48,295.13ZM76.65,206.74a6.06,6.06,0,1,1,6,6A6.05,6.05,0,0,1,76.65,206.74ZM180.33,372.16a6.05,6.05,0,1,1,6.06-6.05A6.05,6.05,0,0,1,180.33,372.16ZM279.1,189.3a17.45,17.45,0,0,0,0,34.89,15.67,15.67,0,0,0,1.69-.09l24.33,50.14a17.37,17.37,0,0,0-5.37,10.15l-55.89,3.55A17.44,17.44,0,1,0,245,299.06l48-3.06L192.74,353.84a17.46,17.46,0,0,0-6.82-4.25V225.72a17.46,17.46,0,0,0,11.86-16.53,17.11,17.11,0,0,0-.2-2.6l108.11-62.41a17,17,0,0,0,5.73,3.24V261.66L291,219.52A17.44,17.44,0,0,0,279.1,189.3Zm6,17.44a6,6,0,1,1-6-6.05A6.05,6.05,0,0,1,285.15,206.74ZM234,295.13a6.06,6.06,0,1,1-6.06-6.05A6.06,6.06,0,0,1,234,295.13Zm83-2.07a6.05,6.05,0,1,1,6.06-6A6,6,0,0,1,317,293.06Z"/><path class="cls-2" d="M472.65,282.82q0,16.28-10.85,24.32a46.65,46.65,0,0,1-10.75,5.93,30.23,30.23,0,0,1-10.76,2.11H421a30.23,30.23,0,0,1-10.76-2.11,46.44,46.44,0,0,1-10.75-5.93q-10.65-7.84-10.65-24.32V269.55q0-9.45,11.66-9.45,12.06,0,12.06,9.45v11.66a15.84,15.84,0,0,0,3,9.44q3,4.23,10.45,4.23h9.25q7.43,0,10.45-4.23a15.85,15.85,0,0,0,3-9.44V164q0-9.65,11.85-9.64,12.06,0,12.06,9.64Z"/><path class="cls-2" d="M517.68,315.18q-7.44,0-10-3.82a14.58,14.58,0,0,1-2.62-8.44V164q0-9.65,11.66-9.64,12.06,0,12.06,9.64V294.88h67.14q7.23,0,7.23,9.84.4,10.45-7.23,10.46Z"/><path class="cls-2" d="M729.93,282.82q0,16.28-10.85,24.32a46.5,46.5,0,0,1-10.76,5.93,30.18,30.18,0,0,1-10.75,2.11H653.75A30.14,30.14,0,0,1,643,313.07a46.5,46.5,0,0,1-10.76-5.93,27.09,27.09,0,0,1-8-9.95,33.42,33.42,0,0,1-2.81-14.37V187.34a33.74,33.74,0,0,1,2.81-14.17,25.07,25.07,0,0,1,8-9.95H632a59.92,59.92,0,0,1,10.86-5.63,29.65,29.65,0,0,1,10.85-2.21h43.82a29.69,29.69,0,0,1,10.85,2.21,60.25,60.25,0,0,1,10.86,5.63h-.2a25.07,25.07,0,0,1,8,9.95,33.74,33.74,0,0,1,2.81,14.17v13.87q0,9.64-12.06,9.65-11.86,0-11.86-9.65V189.15a15.59,15.59,0,0,0-3-9.25q-3-4.22-10.46-4.22H658.78q-7.44,0-10.46,4.22a15.59,15.59,0,0,0-3,9.25v92.06a15.84,15.84,0,0,0,3,9.44q3,4.23,10.46,4.23h33.76q7.44,0,10.46-4.23a15.84,15.84,0,0,0,3-9.44V269.55q0-9.45,11.86-9.45,12.06,0,12.06,9.45Z"/><path class="cls-2" d="M890.32,294.88q7.44,0,10.46-4.23a15.84,15.84,0,0,0,3-9.44V189.15a15.59,15.59,0,0,0-3-9.25q-3-4.22-10.46-4.22h-47l-.2,131.05a8.4,8.4,0,0,1-3.42,7,13.5,13.5,0,0,1-8.44,2.61q-11.87,0-11.86-9.65V167.44q0-7.23,3.72-9.65a16.14,16.14,0,0,1,8.94-2.41h63.32a29.69,29.69,0,0,1,10.85,2.21,60.25,60.25,0,0,1,10.86,5.63h-.2a25.07,25.07,0,0,1,8,9.95,33.74,33.74,0,0,1,2.81,14.17v95.48q0,16.28-10.85,24.32a46.5,46.5,0,0,1-10.76,5.93,30.22,30.22,0,0,1-10.75,2.11H861.58a6.09,6.09,0,0,1-5.33-2.82,13,13,0,0,1-1.91-7.43q0-10.05,8.65-10.05Z"/><path class="cls-2" d="M970.92,315.18q-7.44,0-10-3.82a14.64,14.64,0,0,1-2.61-8.44V167.44a14.18,14.18,0,0,1,2.61-8.34q2.61-3.72,10-3.72h69.95q7.44,0,7.84,10.05.4,10.26-7.84,10.25H982v119.2h62.51q7.42,0,7.64,9.84.39,10.45-7.64,10.46ZM1033.43,232a16,16,0,0,1-4.92,11.86,16.46,16.46,0,0,1-12,4.83,15.88,15.88,0,0,1-11.66-4.83,17,17,0,0,1,0-23.72,15.91,15.91,0,0,1,11.66-4.82,16.49,16.49,0,0,1,12,4.82A16,16,0,0,1,1033.43,232Z"/><path class="cls-2" d="M1121.07,316a30.89,30.89,0,0,1-8.55-1.31,10.38,10.38,0,0,1-6.53-4.92q-4.62-15.67-9.65-32.16t-10-32.36q-5.62-18.69-12.06-38.9t-12.06-38.69a8.33,8.33,0,0,1,1.41-7.74A15.3,15.3,0,0,1,1071,155a21,21,0,0,1,5.22-.8q6.84,0,8.85,6.83L1100,208.65q2,7.23,4.72,15.88t5.53,17.68q2.82,9,5.63,18t5.23,16.58q3.81-12.66,8.34-27.43t9.24-30q4.72-15.27,9.35-30.25t8.64-28q2.22-6.82,8.65-6.83a23.87,23.87,0,0,1,5.62.8q11.05,3,8.65,12.66-10.86,35.18-21.91,71t-21.91,71.15a8.19,8.19,0,0,1-5.93,5.12A35,35,0,0,1,1121.07,316Z"/><path class="cls-2" d="M1252.32,306.94q0,9.65-12.06,9.64-11.87,0-11.86-9.64V175.68h-35.18q-7.23,0-7.64-10.25,0-10.05,7.64-10.05h94.27q7.63,0,7.24,10.05,0,10.26-7.24,10.25h-35.17Z"/><path class="cls-2" d="M1325.48,315.18q-7.44,0-10-3.82a14.58,14.58,0,0,1-2.62-8.44V167.44a14.12,14.12,0,0,1,2.62-8.34q2.61-3.72,10-3.72h70q7.42,0,7.83,10.05.4,10.26-7.83,10.25h-58.9v119.2H1399q7.44,0,7.64,9.84.4,10.45-7.64,10.46ZM1388,232a15.92,15.92,0,0,1-4.93,11.86,16.44,16.44,0,0,1-12,4.83,15.86,15.86,0,0,1-11.65-4.83,17,17,0,0,1,0-23.72,15.88,15.88,0,0,1,11.65-4.82,16.47,16.47,0,0,1,12,4.82A15.94,15.94,0,0,1,1388,232Z"/><path class="cls-2" d="M1536.73,282.82q0,16.28-10.86,24.32a46.44,46.44,0,0,1-10.75,5.93,30.23,30.23,0,0,1-10.76,2.11h-43.81a30.23,30.23,0,0,1-10.76-2.11,46.44,46.44,0,0,1-10.75-5.93,27,27,0,0,1-8-9.95,33.27,33.27,0,0,1-2.81-14.37V187.34a33.59,33.59,0,0,1,2.81-14.17,25,25,0,0,1,8-9.95h-.2a59.84,59.84,0,0,1,10.85-5.63,29.7,29.7,0,0,1,10.86-2.21h43.81a29.7,29.7,0,0,1,10.86,2.21,59.84,59.84,0,0,1,10.85,5.63h-.2a25.07,25.07,0,0,1,8,9.95,33.59,33.59,0,0,1,2.82,14.17v13.87q0,9.64-12.06,9.65-11.87,0-11.86-9.65V189.15a15.6,15.6,0,0,0-3-9.25q-3-4.22-10.45-4.22h-33.77q-7.44,0-10.45,4.22a15.6,15.6,0,0,0-3,9.25v92.06a15.85,15.85,0,0,0,3,9.44q3,4.23,10.45,4.23h33.77q7.44,0,10.45-4.23a15.85,15.85,0,0,0,3-9.44V269.55q0-9.45,11.86-9.45,12.06,0,12.06,9.45Z"/></svg>